  <svg
                                                    width=21
                                                    height=21
                                                    viewBox="0 0 21 21"
                                                    fill="none"
                                                    xmlns="http://www.w3.org/2000/svg"
                                                >
                                                    <path
                                                        fillRule="evenodd"
                                                        clipRule="evenodd"
                                                        d="M2.87033 9.45423V3.54819C2.87033 2.43102 3.73649 1.51634 4.83385 1.43913C4.87698 1.43607 5.08911 1.43607 5.12932 1.43913C6.14116 1.51271 6.93955 2.35728 6.93955 3.38837V3.93384C6.93955 4.11392 7.08583 4.2602 7.2659 4.2602C7.44583 4.2602 7.59225 4.11392 7.59225 3.93384V3.38837C7.59225 2.01288 6.52708 0.886385 5.17665 0.78818C5.12376 0.784247 4.84491 0.784101 4.78809 0.788035C3.35199 0.889144 2.21777 2.08632 2.21777 3.54834V9.45438C2.21777 9.63446 2.36405 9.78074 2.54413 9.78074C2.7242 9.78074 2.87048 9.63446 2.87048 9.45438L2.87033 9.45423Z"
                                                        fill="red"
                                                    />
                                                    <path
                                                        fillRule="evenodd"
                                                        clipRule="evenodd"
                                                        d="M5.30288 6.37703C6.11936 6.37703 8.41341 6.37703 9.2303 6.37397C9.40411 6.37397 9.5686 6.28918 9.67 6.1464C9.7714 6.00362 9.79748 5.82048 9.73978 5.65512C9.7392 5.65337 9.73847 5.65162 9.73789 5.64987C9.3215 4.51741 8.364 3.74219 7.26608 3.74219C6.16842 3.74219 5.21107 4.51697 4.79121 5.64786C4.79063 5.64975 4.78975 5.65194 4.78902 5.65398C4.73118 5.82036 4.75726 6.00451 4.85925 6.14832C4.96153 6.29197 5.12689 6.37691 5.30301 6.37691H5.30287L5.30288 6.37703ZM9.06358 5.72172L8.85815 5.72216C8.32726 5.72303 7.79618 5.72347 7.26529 5.7239L5.46409 5.72434C5.80719 4.9424 6.47944 4.39502 7.266 4.39502C8.05115 4.39502 8.72235 4.94065 9.06355 5.72169L9.06358 5.72172Z"
                                                        fill="red"
                                                    />
                                                    <path
                                                        fillRule="evenodd"
                                                        clipRule="evenodd"
                                                        d="M15.9459 16.6811L16.6041 19.2054C16.6295 19.3032 16.6081 19.4073 16.5464 19.4872C16.4846 19.5673 16.3893 19.6141 16.288 19.6141H15.9611C15.8393 19.6141 15.7274 19.5462 15.6713 19.4378L14.4251 17.0308C14.3422 16.8708 14.145 16.8082 13.9851 16.8911C13.8251 16.974 13.7625 17.1711 13.8454 17.3311L15.0916 19.738C15.26 20.0629 15.5953 20.2668 15.961 20.2668H16.2879C16.5912 20.2668 16.8772 20.1265 17.0627 19.8865C17.248 19.6466 17.3118 19.3343 17.2355 19.0408L16.5774 16.5165C16.5319 16.3422 16.3534 16.2376 16.1792 16.2831C16.0049 16.3285 15.9003 16.507 15.9458 16.6813L15.9459 16.6811ZM3.75081 17.8145L3.43101 19.0406C3.35467 19.3342 3.41834 19.6463 3.60381 19.8864C3.78913 20.1263 4.07528 20.2666 4.37858 20.2666H4.70552C5.07121 20.2666 5.4066 20.0628 5.57488 19.7379L6.82114 17.3309C6.90404 17.1709 6.84139 16.9738 6.68142 16.8909C6.52145 16.808 6.32433 16.8707 6.24142 17.0306L4.99517 19.4376C4.93907 19.546 4.82718 19.6139 4.70538 19.6139H4.37845C4.27734 19.6139 4.18206 19.5671 4.12014 19.487C4.05836 19.4072 4.03709 19.303 4.06244 19.2052L4.38224 17.9791C4.42769 17.8048 4.32309 17.6264 4.14884 17.5809C3.97459 17.5354 3.79611 17.64 3.75065 17.8143L3.75081 17.8145Z"
                                                        fill="red"
                                                    />
                                                    <path
                                                        fillRule="evenodd"
                                                        clipRule="evenodd"
                                                        d="M1.39897 12.6334C1.66763 15.3711 3.97615 17.51 6.78435 17.51H13.8888C16.8772 17.51 19.3002 15.0871 19.3002 12.0985V11.3C19.3002 11.1199 19.154 10.9736 18.9739 10.9736C18.7938 10.9736 18.6475 11.1199 18.6475 11.3V12.0985C18.6475 14.7265 16.5169 16.8573 13.8888 16.8573H6.78435C4.31515 16.8573 2.28516 14.9767 2.0487 12.5696C2.03107 12.3902 1.8711 12.2591 1.69189 12.2767C1.51255 12.2944 1.38142 12.4541 1.39905 12.6334L1.39897 12.6334Z"
                                                        fill="red"
                                                    />
                                                    <path
                                                        fillRule="evenodd"
                                                        clipRule="evenodd"
                                                        d="M11.9141 9.54315V13.757C11.9141 14.2977 12.3523 14.7361 12.8931 14.7361H15.9913C16.5319 14.7361 16.9703 14.2977 16.9703 13.757V9.54315C16.9703 9.36307 16.8239 9.2168 16.644 9.2168C16.4639 9.2168 16.3176 9.36307 16.3176 9.54315V13.757C16.3176 13.9371 16.1713 14.0834 15.9913 14.0834H12.8931C12.7128 14.0834 12.5668 13.9371 12.5668 13.757V9.54315C12.5668 9.36307 12.4203 9.2168 12.2404 9.2168C12.0603 9.2168 11.9141 9.36307 11.9141 9.54315Z"
                                                        fill="red"
                                                    />
                                                    <path
                                                        fillRule="evenodd"
                                                        clipRule="evenodd"
                                                        d="M16.6441 12.7197H12.2404C12.0603 12.7197 11.9141 12.866 11.9141 13.0461C11.9141 13.2262 12.0603 13.3724 12.2404 13.3724H16.6441C16.824 13.3724 16.9705 13.2262 16.9705 13.0461C16.9705 12.866 16.824 12.7197 16.6441 12.7197Z"
                                                        fill="red"
                                                    />
                                                    <path
                                                        fillRule="evenodd"
                                                        clipRule="evenodd"
                                                        d="M5.13137 7.14457L4.58925 8.12975C4.50242 8.28753 4.56011 8.48611 4.7179 8.57295C4.87568 8.65993 5.07426 8.60238 5.1611 8.4446L5.70352 7.45927C5.79035 7.30149 5.73266 7.10291 5.57487 7.01607C5.41694 6.92924 5.21822 6.98664 5.13152 7.14472L5.13137 7.14457Z"
                                                        fill="red"
                                                    />
                                                    <path
                                                        fillRule="evenodd"
                                                        clipRule="evenodd"
                                                        d="M8.83241 7.45932L9.37453 8.44464C9.46136 8.60243 9.65994 8.65998 9.81773 8.573C9.97552 8.48617 10.0331 8.28759 9.94638 8.12979L9.40426 7.14462C9.31743 6.98669 9.11885 6.92929 8.96091 7.01598C8.80312 7.10281 8.74557 7.30139 8.83255 7.45918L8.83241 7.45932Z"
                                                        fill="red"
                                                    />
                                                    <path
                                                        fillRule="evenodd"
                                                        clipRule="evenodd"
                                                        d="M6.93945 7.30194V8.28711C6.93945 8.46719 7.08573 8.61346 7.26581 8.61346C7.44574 8.61346 7.59216 8.46719 7.59216 8.28711V7.30194C7.59216 7.12186 7.44574 6.97559 7.26581 6.97559C7.08573 6.97559 6.93945 7.12186 6.93945 7.30194Z"
                                                        fill="red"
                                                    />
                                                    <path
                                                        fillRule="evenodd"
                                                        clipRule="evenodd"
                                                        d="M19.6243 4.06633V0.761705C19.6243 0.559628 19.5441 0.366017 19.4013 0.223206C19.2584 0.0802819 19.0647 0.000148467 18.8628 0.000148467H18.2895C18.0876 0.000148467 17.8938 0.0802782 17.751 0.223206C17.6082 0.365984 17.5279 0.559609 17.5279 0.761705V4.06633C17.5279 4.2464 17.6742 4.39268 17.8543 4.39268C18.0344 4.39268 18.1806 4.2464 18.1806 4.06633V0.761705C18.1806 0.732713 18.192 0.705177 18.2124 0.684634C18.2328 0.664237 18.2605 0.652873 18.2895 0.652873H18.8628C18.8918 0.652873 18.9193 0.664237 18.9395 0.684634C18.9599 0.705031 18.9716 0.732714 18.9716 0.761705V4.06633C18.9716 4.2464 19.1179 4.39268 19.2979 4.39268C19.478 4.39268 19.6243 4.2464 19.6243 4.06633H19.6243ZM17.061 4.06633V2.02881C17.061 1.60821 16.7201 1.26727 16.2995 1.26727H16.2951C16.2664 1.26727 16.2387 1.25576 16.2183 1.23522C16.1979 1.21482 16.1863 1.18714 16.1863 1.15844V0.761557C16.1863 0.55948 16.1061 0.365869 15.9632 0.223057C15.8204 0.0801335 15.6268 0 15.4247 0H14.8619C14.66 0 14.4662 0.0801297 14.3234 0.223057C14.1806 0.365835 14.1003 0.559461 14.1003 0.761557V1.15844C14.1003 1.18714 14.0888 1.21482 14.0683 1.23522C14.048 1.25562 14.0202 1.26727 13.9915 1.26727H13.9871C13.5665 1.26727 13.2256 1.60819 13.2256 2.02881V4.06633C13.2256 4.2464 13.3719 4.39268 13.5519 4.39268C13.732 4.39268 13.8783 4.2464 13.8783 4.06633V2.02881C13.8783 1.96849 13.9271 1.91998 13.9871 1.91998H13.9915C14.1934 1.91998 14.387 1.8397 14.53 1.69677C14.6728 1.554 14.7531 1.36037 14.7531 1.15842V0.761541C14.7531 0.732548 14.7646 0.705013 14.7848 0.68447C14.8052 0.664073 14.8329 0.652709 14.8619 0.652709H15.4247C15.4537 0.652709 15.4812 0.664073 15.5018 0.68447C15.5222 0.704867 15.5335 0.73255 15.5335 0.761541V1.15842C15.5335 1.36035 15.6138 1.55396 15.7567 1.69677C15.8995 1.8397 16.0931 1.91998 16.2951 1.91998H16.2995C16.3595 1.91998 16.4083 1.96849 16.4083 2.02852V4.06634C16.4083 4.24641 16.5546 4.39269 16.7346 4.39269C16.9147 4.39269 17.061 4.24641 17.061 4.06634L17.061 4.06633Z"
                                                        fill="red"
                                                    />
                                                    <path
                                                        fillRule="evenodd"
                                                        clipRule="evenodd"
                                                        d="M20.6706 4.50374C20.6706 4.30167 20.5904 4.10806 20.4476 3.96524C20.3046 3.82232 20.111 3.74219 19.9091 3.74219H12.8241C12.622 3.74219 12.4284 3.82232 12.2856 3.96524C12.1426 4.10802 12.0625 4.30165 12.0625 4.50374V5.07704C12.0625 5.27897 12.1426 5.47258 12.2856 5.61554C12.4283 5.75832 12.622 5.8386 12.8241 5.8386H19.9091C20.111 5.8386 20.3046 5.75832 20.4476 5.61554C20.5903 5.47262 20.6706 5.27899 20.6706 5.07704V4.50374ZM20.0179 4.50374V5.07704C20.0179 5.10574 20.0064 5.13357 19.9862 5.15382C19.9658 5.17422 19.9381 5.18588 19.9091 5.18588H12.8241C12.7951 5.18588 12.7675 5.17437 12.747 5.15382C12.7266 5.13357 12.7152 5.10574 12.7152 5.07704V4.50374C12.7152 4.47475 12.7266 4.44722 12.747 4.42667C12.7674 4.40628 12.7951 4.39491 12.8241 4.39491H19.9091C19.9381 4.39491 19.9656 4.40628 19.9862 4.42667C20.0064 4.44707 20.0179 4.47475 20.0179 4.50374Z"
                                                        fill="red"
                                                    />
                                                    <path
                                                        fillRule="evenodd"
                                                        clipRule="evenodd"
                                                        d="M17.7962 11.6283H19.69C19.9496 11.6283 20.1986 11.5251 20.3823 11.3415C20.5659 11.158 20.6691 10.9088 20.6691 10.6492V10.1958C20.6691 9.93607 20.5659 9.68691 20.3823 9.50352C20.1988 9.31995 19.9496 9.2168 19.69 9.2168H0.979038C0.719414 9.2168 0.470413 9.31995 0.286724 9.50352C0.10315 9.68695 0 9.9361 0 10.1958V10.6492C0 10.9088 0.10315 11.1578 0.286724 11.3415C0.470298 11.5251 0.719448 11.6283 0.979038 11.6283H11.0691C11.2492 11.6283 11.3955 11.482 11.3955 11.3019C11.3955 11.1218 11.2492 10.9756 11.0691 10.9756H0.979038C0.892497 10.9756 0.809596 10.9412 0.74826 10.8798C0.68707 10.8186 0.652686 10.7357 0.652686 10.6492V10.1958C0.652686 10.1093 0.687069 10.0261 0.74826 9.96504C0.809596 9.90385 0.892497 9.86946 0.979038 9.86946H19.69C19.7766 9.86946 19.8595 9.90385 19.9208 9.96504C19.982 10.0262 20.0164 10.1093 20.0164 10.1958V10.6492C20.0164 10.7357 19.982 10.8186 19.9208 10.8798C19.8595 10.9412 19.7766 10.9756 19.69 10.9756H17.7962C17.6161 10.9756 17.4698 11.1218 17.4698 11.3019C17.4698 11.482 17.6161 11.6283 17.7962 11.6283Z"
                                                        fill="red"
                                                    />
                                                </svg>