  <svg
                                                    width=25
                                                    height=21
                                                    viewBox="0 0 25 17"
                                                    fill="none"
                                                    xmlns="http://www.w3.org/2000/svg"
                                                >
                                                    <path
                                                        d="M6.26832 3.08576H9.70875C10.1912 3.08576 10.6311 3.28308 10.9488 3.6009C11.2667 3.91871 11.464 4.35756 11.464 4.841V6.17302H13.5385V4.841C13.5385 4.35996 13.7358 3.92185 14.0536 3.6033L14.056 3.60091C14.3745 3.28402 14.8119 3.08672 15.293 3.08672H18.7334C19.2145 3.08672 19.6533 3.28404 19.9719 3.60185C20.2912 3.92113 20.4885 4.35941 20.4885 4.84195V6.17398H21.9693V1.9459C21.9693 1.62975 21.8395 1.34125 21.6302 1.13212C21.4211 0.923008 21.1325 0.792937 20.8164 0.792937H4.18422C3.86807 0.792937 3.57882 0.922824 3.36969 1.13212C3.16058 1.34123 3.03051 1.62975 3.03051 1.9459V6.17398H4.51139V4.84195C4.51139 4.36016 4.7087 3.92205 5.02652 3.6035C5.3458 3.28422 5.78408 3.08691 6.26662 3.08691L6.26832 3.08576ZM0.792967 11.167H24.2084V7.96014C24.2084 7.686 24.0967 7.43638 23.916 7.25654C23.7362 7.07672 23.4865 6.96415 23.2124 6.96415H1.78733C1.51319 6.96415 1.26357 7.0758 1.08373 7.25654C0.903913 7.43635 0.791345 7.686 0.791345 7.96014V11.167H0.792967ZM24.2084 11.9594H0.792967V12.5607C0.792967 12.8341 0.905536 13.0828 1.08535 13.2636C1.26443 13.4443 1.51407 13.556 1.7882 13.556H23.2132C23.4787 13.556 23.7212 13.4506 23.8995 13.2811L23.9161 13.2636C24.0969 13.0828 24.2085 12.8341 24.2085 12.5607V11.9594H24.2084ZM22.7615 6.1718H23.2124C23.7028 6.1718 24.1498 6.37298 24.4738 6.69632C24.7986 7.02204 25 7.46883 25 7.95943V12.56C25 13.0521 24.7988 13.4989 24.4755 13.8231L24.451 13.8462C24.1293 14.1561 23.6919 14.3477 23.2125 14.3477H22.1602V16.3936C22.1602 16.6123 21.9828 16.7897 21.7641 16.7897H20.1603C19.9867 16.7881 19.8283 16.674 19.78 16.499L19.1811 14.3477H5.81838L5.22014 16.499C5.17187 16.674 5.01251 16.789 4.83987 16.789L3.23608 16.7907C3.0174 16.7907 2.83998 16.6132 2.83998 16.3945V14.3486H1.78764C1.29722 14.3486 0.850239 14.1474 0.52617 13.8241C0.201361 13.5007 0 13.053 0 12.561V7.96037C0 7.46995 0.201186 7.02297 0.524519 6.6989C0.850248 6.37409 1.29703 6.17273 1.78764 6.17273H2.2392V1.94465C2.2392 1.40909 2.45789 0.922494 2.8098 0.570599C3.16169 0.218707 3.649 0 4.18456 0H20.8167C21.3523 0 21.8389 0.218689 22.1908 0.570599C22.5427 0.922509 22.7614 1.4098 22.7614 1.94465V6.17273L22.7615 6.1718ZM21.3685 14.3473H20.0017L20.4604 15.997H21.3686L21.3685 14.3473ZM4.99954 14.3473H3.63342V15.997H4.54058L4.99933 14.3473H4.99954ZM18.7339 3.87771H15.2935C15.028 3.87771 14.7872 3.98622 14.6144 4.15977C14.4394 4.3348 14.3316 4.57578 14.3316 4.84036V6.17239H19.6975V4.84036C19.6975 4.5758 19.589 4.3348 19.4155 4.16053C19.2412 3.98698 18.9994 3.87846 18.7349 3.87846L18.7339 3.87771ZM9.70847 3.87771H6.26804C6.00347 3.87771 5.76248 3.98622 5.5882 4.15977C5.41392 4.33406 5.30614 4.57505 5.30614 4.83961V6.17163H10.6721V4.83961C10.6721 4.57578 10.5635 4.3348 10.3893 4.16053C10.215 3.98624 9.97399 3.87772 9.71018 3.87772L9.70847 3.87771Z"
                                                        fill="red"
                                                    />
                                                </svg>