   <svg width=13 height=14 viewBox="0 0 13 14" fill="none" xmlns="http://www.w3.org/2000/svg">
        <path
            d="M11.9538 2.40018C11.0418 3.23218 10.1538 4.20018 9.28981 5.30418C8.53781 6.25618 7.86181 7.23218 7.26181 8.23218C6.71781 9.12818 6.32181 9.89618 6.07381 10.5362C6.06581 10.5602 6.04981 10.5802 6.02581 10.5962C6.00181 10.6202 5.97381 10.6322 5.94181 10.6322C5.93381 10.6402 5.92581 10.6442 5.91781 10.6442C5.86181 10.6442 5.82181 10.6282 5.79781 10.5962L1.51381 6.24018C1.50581 6.23218 1.60981 6.12818 1.82581 5.92818C2.04181 5.72018 2.25381 5.53218 2.46181 5.36418C2.69381 5.17218 2.81781 5.08418 2.83381 5.10018L5.18581 6.94818C5.87381 6.14018 6.64581 5.34018 7.50181 4.54818C8.78981 3.36418 10.1178 2.35618 11.4858 1.52418C11.5098 1.52418 11.6018 1.63618 11.7618 1.86018L12.0018 2.20818C12.0098 2.24018 12.0098 2.27618 12.0018 2.31618C11.9938 2.34818 11.9778 2.37618 11.9538 2.40018Z"
            fill="#fa4a4a" />
    </svg>